# xmcd
#
# Track frame offsets: 
#        183
#        17358
#        23733
#        39483
#        50733
#        68058
#        90333
#        99108
#        115533
#        127083
#        143508
#        158433
#        163233
#        172158
#        178908
#        192183
#        201408
#        210258
#        217308
#        236208
#        260058
#
# Disc length: 3654 seconds
#
# Revision: 9
# Processed by: cddbd v1.5.2PL0 Copyright (c) Steve Scherf et al.
# Submitted via: ExactAudioCopy v0.99pb5
#
DISCID=270e4415
DTITLE=Grumiaux, Jaccottet - J.S Bach - Violin Sonatas BWV.1019-1023
DYEAR=1996
DGENRE=Classical
TTITLE0=Sonata for violin and harpsichord N°6 in G major, BWV.1019 - I
TTITLE0=Allegro
TTITLE1=Sonata for violin and harpsichord N°6 in G major, BWV.1019 - I
TTITLE1=I. Largo
TTITLE2=Sonata for violin and harpsichord N°6 in G major, BWV.1019 - I
TTITLE2=II. Allegro
TTITLE3=Sonata for violin and harpsichord N°6 in G major, BWV.1019 - I
TTITLE3=V. Adagio
TTITLE4=Sonata for violin and harpsichord N°6 in G major, BWV.1019 - V
TTITLE4=Allegro
TTITLE5=Alternative Movements, BWV 1019a - I. Cantabile ma un poco ada
TTITLE5=gio
TTITLE6=Alternative Movements, BWV 1019a - II. Adagio
TTITLE7=Sonata for violin or flute and continuo N°1 in G minor, BWV.10
TTITLE7=20 - I. (Allegro)
TTITLE8=Sonata for violin or flute and continuo N°1 in G minor, BWV.10
TTITLE8=20 - II. Adagio
TTITLE9=Sonata for violin or flute and continuo N°1 in G minor, BWV.10
TTITLE9=20 - III. Allegro
TTITLE10=Sonata for violin or flute and continuo N°2 in G major, BWV.1
TTITLE10=021 - I. Adagio
TTITLE11=Sonata for violin or flute and continuo N°2 in G major, BWV.1
TTITLE11=021 - II. Vivace
TTITLE12=Sonata for violin or flute and continuo N°2 in G major, BWV.1
TTITLE12=021 - III. Largo
TTITLE13=Sonata for violin or flute and continuo N°2 in G major, BWV.1
TTITLE13=021 - IV. Presto
TTITLE14=Sonata for violin or flute and continuo N°3 in F major, BWV.1
TTITLE14=022 - I. no tempo
TTITLE15=Sonata for violin or flute and continuo N°3 in F major, BWV.1
TTITLE15=022 - II. Allegro e presto
TTITLE16=Sonata for violin or flute and continuo N°3 in F major, BWV.1
TTITLE16=022 - III. Adagio
TTITLE17=Sonata for violin or flute and continuo N°3 in F major, BWV.1
TTITLE17=022 - IV. Presto
TTITLE18=Sonata for violin or flute and continuo N°4 in E minor, BWV.1
TTITLE18=023 - I. Adagio ma non tanto
TTITLE19=Sonata for violin or flute and continuo N°4 in E minor, BWV.1
TTITLE19=023 - II. Allemande
TTITLE20=Sonata for violin or flute and continuo N°4 in E minor, BWV.1
TTITLE20=023 - III. Gigue
EXTD=YEAR: 1996
EXTT0=
EXTT1=
EXTT2=
EXTT3=
EXTT4=
EXTT5=
EXTT6=
EXTT7=
EXTT8=
EXTT9=
EXTT10=
EXTT11=
EXTT12=
EXTT13=
EXTT14=
EXTT15=
EXTT16=
EXTT17=
EXTT18=
EXTT19=
EXTT20=
PLAYORDER=
